<svg xmlns="http://www.w3.org/2000/svg" width="1280" height="640" viewBox="0 0 1280 640">
  <defs>
    <linearGradient id="bg" x1="0%" y1="0%" x2="100%" y2="100%">
      <stop offset="0%" style="stop-color:#141414"/>
      <stop offset="50%" style="stop-color:#1b1b1b"/>
      <stop offset="100%" style="stop-color:#222222"/>
    </linearGradient>
    <linearGradient id="accent" x1="0%" y1="0%" x2="100%" y2="0%">
      <stop offset="0%" style="stop-color:#575ECF"/>
      <stop offset="100%" style="stop-color:#7B80E0"/>
    </linearGradient>
    <linearGradient id="accentV" x1="0%" y1="0%" x2="0%" y2="100%">
      <stop offset="0%" style="stop-color:#575ECF"/>
      <stop offset="100%" style="stop-color:#7B80E0"/>
    </linearGradient>
  </defs>

  <!-- Background -->
  <rect width="1280" height="640" fill="url(#bg)"/>

  <!-- Grid pattern -->
  <g opacity="0.03" stroke="#575ECF" stroke-width="1">
    <line x1="0" y1="80" x2="1280" y2="80"/>
    <line x1="0" y1="160" x2="1280" y2="160"/>
    <line x1="0" y1="240" x2="1280" y2="240"/>
    <line x1="0" y1="320" x2="1280" y2="320"/>
    <line x1="0" y1="400" x2="1280" y2="400"/>
    <line x1="0" y1="480" x2="1280" y2="480"/>
    <line x1="0" y1="560" x2="1280" y2="560"/>
    <line x1="160" y1="0" x2="160" y2="640"/>
    <line x1="320" y1="0" x2="320" y2="640"/>
    <line x1="480" y1="0" x2="480" y2="640"/>
    <line x1="640" y1="0" x2="640" y2="640"/>
    <line x1="800" y1="0" x2="800" y2="640"/>
    <line x1="960" y1="0" x2="960" y2="640"/>
    <line x1="1120" y1="0" x2="1120" y2="640"/>
  </g>

  <!-- Accent line top -->
  <rect x="0" y="0" width="1280" height="4" fill="url(#accent)"/>

  <!-- Left accent bar -->
  <rect x="0" y="0" width="4" height="640" fill="url(#accentV)" opacity="0.5"/>

  <!-- Glow effect top-left -->
  <circle cx="0" cy="0" r="300" fill="#575ECF" opacity="0.04"/>

  <!-- Glow effect bottom-right -->
  <circle cx="1280" cy="640" r="300" fill="#575ECF" opacity="0.03"/>

  <!-- SoClose "&" Logo -->
  <g transform="translate(80, 155)">
    <!-- Stylized ampersand — the SoClose logo mark -->
    <text font-family="Georgia, 'Times New Roman', serif" font-weight="400" font-size="145" fill="white" opacity="0.95"
      x="0" y="115" letter-spacing="-5">&amp;</text>
    <!-- Small "+" cross accent -->
    <g transform="translate(95, 100)" opacity="0.8">
      <line x1="0" y1="8" x2="16" y2="8" stroke="white" stroke-width="3" stroke-linecap="round"/>
      <line x1="8" y1="0" x2="8" y2="16" stroke="white" stroke-width="3" stroke-linecap="round"/>
    </g>
  </g>

  <!-- Main title -->
  <text x="260" y="235" font-family="system-ui, -apple-system, 'Segoe UI', sans-serif" font-weight="800" font-size="64" fill="#FFFFFF" letter-spacing="-2">
    LinkedIn Data
  </text>
  <text x="260" y="310" font-family="system-ui, -apple-system, 'Segoe UI', sans-serif" font-weight="800" font-size="64" fill="#FFFFFF" letter-spacing="-2">
    Scraper
  </text>

  <!-- Subtitle -->
  <text x="260" y="360" font-family="system-ui, -apple-system, 'Segoe UI', sans-serif" font-weight="400" font-size="24" fill="#c5c1b9" letter-spacing="0.5">
    Extract profiles, emails &amp; contacts at scale
  </text>

  <!-- Feature pills row -->
  <g transform="translate(260, 400)">
    <rect x="0" y="0" width="140" height="40" rx="20" fill="#575ECF" opacity="0.12"/>
    <rect x="0" y="0" width="140" height="40" rx="20" fill="none" stroke="#575ECF" stroke-width="1.5" opacity="0.35"/>
    <text x="70" y="26" text-anchor="middle" font-family="system-ui, sans-serif" font-weight="600" font-size="15" fill="#7B80E0">Voyager API</text>

    <rect x="158" y="0" width="130" height="40" rx="20" fill="#575ECF" opacity="0.12"/>
    <rect x="158" y="0" width="130" height="40" rx="20" fill="none" stroke="#575ECF" stroke-width="1.5" opacity="0.35"/>
    <text x="223" y="26" text-anchor="middle" font-family="system-ui, sans-serif" font-weight="600" font-size="15" fill="#7B80E0">Playwright</text>

    <rect x="306" y="0" width="160" height="40" rx="20" fill="#575ECF" opacity="0.12"/>
    <rect x="306" y="0" width="160" height="40" rx="20" fill="none" stroke="#575ECF" stroke-width="1.5" opacity="0.35"/>
    <text x="386" y="26" text-anchor="middle" font-family="system-ui, sans-serif" font-weight="600" font-size="15" fill="#7B80E0">Excel + CSV</text>

    <rect x="484" y="0" width="180" height="40" rx="20" fill="#575ECF" opacity="0.12"/>
    <rect x="484" y="0" width="180" height="40" rx="20" fill="none" stroke="#575ECF" stroke-width="1.5" opacity="0.35"/>
    <text x="574" y="26" text-anchor="middle" font-family="system-ui, sans-serif" font-weight="600" font-size="15" fill="#7B80E0">15+ Data Fields</text>
  </g>

  <!-- Right side: mock data visualization -->
  <g transform="translate(850, 150)" opacity="0.15">
    <rect x="0" y="0" width="350" height="300" rx="8" fill="#2a2a2a" stroke="#575ECF" stroke-width="1"/>
    <rect x="1" y="1" width="348" height="36" rx="8" fill="#575ECF" opacity="0.3"/>
    <text x="15" y="24" font-family="monospace" font-size="11" fill="#c5c1b9">Name</text>
    <text x="110" y="24" font-family="monospace" font-size="11" fill="#c5c1b9">Email</text>
    <text x="230" y="24" font-family="monospace" font-size="11" fill="#c5c1b9">Company</text>
    <rect x="1" y="37" width="348" height="26" fill="#1b1b1b"/>
    <text x="15" y="55" font-family="monospace" font-size="10" fill="#666">J. Smith</text>
    <text x="110" y="55" font-family="monospace" font-size="10" fill="#575ECF">j@acme.co</text>
    <text x="230" y="55" font-family="monospace" font-size="10" fill="#666">Acme Inc</text>
    <rect x="1" y="63" width="348" height="26" fill="#222"/>
    <text x="15" y="81" font-family="monospace" font-size="10" fill="#666">A. Chen</text>
    <text x="110" y="81" font-family="monospace" font-size="10" fill="#575ECF">a@tech.io</text>
    <text x="230" y="81" font-family="monospace" font-size="10" fill="#666">TechCorp</text>
    <rect x="1" y="89" width="348" height="26" fill="#1b1b1b"/>
    <text x="15" y="107" font-family="monospace" font-size="10" fill="#666">M. Dubois</text>
    <text x="110" y="107" font-family="monospace" font-size="10" fill="#575ECF">m@fr.eu</text>
    <text x="230" y="107" font-family="monospace" font-size="10" fill="#666">EuroFin</text>
    <rect x="1" y="115" width="348" height="26" fill="#222"/>
    <rect x="1" y="141" width="348" height="26" fill="#1b1b1b"/>
    <rect x="1" y="167" width="348" height="26" fill="#222"/>
    <rect x="1" y="193" width="348" height="26" fill="#1b1b1b"/>
    <rect x="1" y="219" width="348" height="26" fill="#222"/>
    <rect x="1" y="245" width="348" height="26" fill="#1b1b1b"/>
    <rect x="1" y="271" width="348" height="28" fill="#222"/>
  </g>

  <!-- Bottom bar -->
  <rect x="60" y="560" width="1160" height="1" fill="#575ECF" opacity="0.2"/>
  <text x="60" y="590" font-family="system-ui, sans-serif" font-weight="700" font-size="18" fill="#575ECF">soclose.co</text>
  <text x="1220" y="590" text-anchor="end" font-family="system-ui, sans-serif" font-weight="400" font-size="14" fill="#666">Python 3.9+ | MIT License | Mac, Windows, Linux</text>
</svg>
